<svg width="320" height="320" viewBox="0 0 320 320" fill="none" xmlns="http://www.w3.org/2000/svg">
<path d="M7.1 180.6V297.7C7.1 306.1 13.9 313 22.4 313H142C141 239.8 80.9 180.7 7.1 180.6Z" fill="#660066"/>
<path d="M7.1 84.1V133.9C106.1 134.8 186.5 214.6 187.5 313H239.2C238.2 186.6 134.5 84.2 7.1 84.1Z" fill="#660066"/>
<path d="M312.9 297.6V193.5C278.1 107.2 207.3 38.9 119 7.10001H22.4C14 7.10001 7.1 13.9 7.1 22.4V37.4C159.7 38.3 283.7 161.4 284.7 313H297.7C306.1 312.9 312.9 306.1 312.9 297.6Z" fill="#660066"/>
<path d="M272.6 49.8C287.1 64.2 301.2 81.5 313 97.6V22.4C313 14 306.2 7.10001 297.7 7.10001H220.4C238.4 19.7 256.6 33.9 272.6 49.8Z" fill="#660066"/>
<path d="M160 45V125" stroke="#EE5757" stroke-width="40" stroke-linecap="round"/>
<path fill-rule="evenodd" clip-rule="evenodd" d="M107.879 82.3098C102.064 72.1915 88.7818 68.9532 80.3636 77.0357C58.5671 97.9632 45 127.397 45 160C45 223.513 96.4873 275 160 275C223.513 275 275 223.513 275 160C275 127.397 261.433 97.9632 239.636 77.0357C231.218 68.9532 217.936 72.1915 212.121 82.3097V82.3097C206.875 91.4366 209.747 102.899 216.649 110.847C228.081 124.01 235 141.197 235 160C235 201.421 201.421 235 160 235C118.579 235 85 201.421 85 160C85 141.197 91.9193 124.01 103.351 110.847C110.253 102.899 113.125 91.4366 107.879 82.3098V82.3098Z" fill="#EE5757"/>
</svg>
